<?xml version="1.0" encoding="UTF-8"?>
<svg version="1.1" xmlns="http://www.w3.org/2000/svg" width="207" height="151">
<path d="M0 0 C68.31 0 136.62 0 207 0 C207 49.83 207 99.66 207 151 C138.69 151 70.38 151 0 151 C0 101.17 0 51.34 0 0 Z " fill="#000000" transform="translate(0,0)"/>
<path d="M0 0 C1.95703125 1.6015625 1.95703125 1.6015625 3.8125 3.625 C6.97273565 7.03455061 10.33054242 10.07348453 13.83959961 13.11328125 C17.41530443 16.23601228 20.89829584 19.45540448 24.375 22.6875 C25.08527344 23.33783203 25.79554687 23.98816406 26.52734375 24.65820312 C27.20667969 25.29048828 27.88601562 25.92277344 28.5859375 26.57421875 C29.49931885 27.41859497 29.49931885 27.41859497 30.43115234 28.2800293 C32.07248895 30.07947162 33.02227738 31.780248 34 34 C31.702779 35.74271938 29.40133271 37.39911152 27 39 C27.48654053 39.30591064 27.97308105 39.61182129 28.47436523 39.92700195 C40.03745698 47.20184859 51.54819825 54.55119681 63 62 C62.62915039 63.92089844 62.62915039 63.92089844 62 66 C59.93359375 67.265625 59.93359375 67.265625 57.4375 68.25 C56.19806641 68.75273437 56.19806641 68.75273437 54.93359375 69.265625 C54.29550781 69.50796875 53.65742188 69.7503125 53 70 C53.62003906 70.49886719 54.24007812 70.99773437 54.87890625 71.51171875 C60.5098254 76.07710735 66.03701003 80.7358615 71.5 85.5 C76.64175936 89.98292309 81.84618 94.36318351 87.1484375 98.65625 C92.84738899 103.34031972 98.41486337 108.18129088 104 113 C103.67 114.32 103.34 115.64 103 117 C96.45485239 115.70204657 90.50958588 113.83912064 84.32421875 111.359375 C83.41246384 111.00032074 82.50070892 110.64126648 81.56132507 110.27133179 C78.60081621 109.10393283 75.64409177 107.92728028 72.6875 106.75 C69.60016444 105.52739221 66.51210924 104.30661617 63.4239502 103.08609009 C61.33827092 102.26166187 59.25290385 101.43644341 57.16784668 100.61044312 C50.49784453 97.97187528 43.81050568 95.38404395 37.10546875 92.8359375 C35.43850833 92.19967423 33.77159612 91.56328465 32.10473633 90.92675781 C29.75932095 90.03134599 27.41295536 89.13922481 25.06210327 88.25817871 C22.92047914 87.45501503 20.78414008 86.63906629 18.6484375 85.8203125 C17.45395996 85.36930176 16.25948242 84.91829102 15.02880859 84.45361328 C11.98940209 82.99491376 10.19574597 81.527307 8 79 C10.86459118 76.66588867 13.55905814 75.31246538 17 74 C10.4842794 70.85476158 3.85536571 68.12897093 -2.9140625 65.58984375 C-4.09412872 65.14458847 -4.09412872 65.14458847 -5.29803467 64.69033813 C-8.57802328 63.45391239 -11.85853587 62.21971367 -15.14794922 61.00854492 C-17.57558161 60.11232306 -19.99509924 59.19666219 -22.4140625 58.27734375 C-23.53574326 57.87249001 -23.53574326 57.87249001 -24.68008423 57.4594574 C-26.75634766 56.65991211 -26.75634766 56.65991211 -30 55 C-30.70272827 52.89625549 -30.70272827 52.89625549 -31 51 C-29.56328432 50.35242375 -28.12559584 49.70700547 -26.6875 49.0625 C-25.48673828 48.52302734 -25.48673828 48.52302734 -24.26171875 47.97265625 C-22 47 -22 47 -19 46 C-27.49983831 42.05916588 -36.23982483 38.80562071 -45 35.5 C-50.06864613 33.58736455 -55.13404291 31.66767691 -60.18359375 29.70507812 C-61.79719645 29.07872267 -63.41400404 28.46063763 -65.03125 27.84375 C-67.5 26.84375 -67.5 26.84375 -71 25 C-71.71875 22.88476562 -71.71875 22.88476562 -72 21 C-62.51002656 17.81882845 -53.01618898 14.64954713 -43.51643372 11.49769592 C-39.45322644 10.14924025 -35.391271 8.79735266 -31.33300781 7.43408203 C-27.74971215 6.23039437 -24.16289711 5.03787828 -20.57302856 3.85394287 C-19.23851479 3.41158298 -17.90537944 2.96504157 -16.57369995 2.51422119 C-14.72081298 1.88771954 -12.86245899 1.27745719 -11.00390625 0.66796875 C-9.96049072 0.32016357 -8.9170752 -0.0276416 -7.84204102 -0.38598633 C-4.78526033 -1.0463938 -2.96562723 -0.92957785 0 0 Z " fill="#FFC90E" transform="translate(87,17)"/>
</svg>
